<svg xmlns="http://www.w3.org/2000/svg" xmlns:xlink="http://www.w3.org/1999/xlink" width="966.303" height="461.3" viewBox="0 0 966.303 461.3">
  <defs>
    <linearGradient id="linear-gradient" x1="1" y1="0.47" x2="0" y2="0.47" gradientUnits="objectBoundingBox">
      <stop offset="0" stop-color="#4f1f91"/>
      <stop offset="1" stop-color="#3dcfcc"/>
    </linearGradient>
  </defs>
  <path id="Union_2" data-name="Union 2" d="M174.8,451.6a73.367,73.367,0,0,1-26-25.9,69.409,69.409,0,0,1-9.7-36.2V333.3a69.389,69.389,0,0,1,9.7-36.2,73.282,73.282,0,0,1,26-25.9,69.057,69.057,0,0,1,36.1-9.7h96.9v21.3H261.9A75.652,75.652,0,0,1,273,297.2a69.39,69.39,0,0,1,9.7,36.2v56.1a69.409,69.409,0,0,1-9.7,36.2,73.325,73.325,0,0,1-26,25.9,69.047,69.047,0,0,1-36.1,9.7A70,70,0,0,1,174.8,451.6Zm-14.4-62.1c0,27.5,23,50.5,50.6,50.5,27.4,0,50.5-23,50.5-50.5V356.2H160.4Zm0-56.2v1.6H261.5v-1.6c0-23.8-17.4-44.3-39.9-49.3v45H200.3V284C177.7,289,160.4,309.5,160.4,333.3Zm357,33.2c-8-7.8-12-17.6-12-29.3s4-21.4,12-29.3q12-11.7,29.7-11.7T576.8,307.9c8,7.8,12,17.6,12,29.3,0,11.8-4,21.5-12,29.3s-17.9,11.7-29.705,11.7S525.4,374.3,517.4,366.5Zm9.8-49.6a29.752,29.752,0,0,0,0,40.8,27.782,27.782,0,0,0,39.8,0,29.741,29.741,0,0,0,0-40.8,27.77,27.77,0,0,0-39.8,0ZM908.8,377.5V298.2h57.1v12.6H922.2v21h38v11.9h-38v21.2h43.7v12.6Zm-131.2,0v-62l-27.7,55h-7.5l-27.6-55v62H701.5V298.2h20.9L746.3,348l23.9-49.8H791v79.3Zm-62.8,0h0Zm-335.5,0V345H339.9v32.5H326.5V298.2h13.4v34.4h39.4V298.2h13.4v79.3ZM718.7,262.3c-14-13.7-21.1-30.8-21.1-51.3s7-37.6,21.1-51.3q21-20.546,52.1-20.6c20.7,0,38,6.9,52.1,20.6,2.2,2.1,4.1,4.3,6,6.5a71.982,71.982,0,0,0-12,26.8,50.486,50.486,0,0,0-11.2-17.7,48.772,48.772,0,0,0-69.8,0c-9.5,9.8-14.2,21.7-14.2,35.7s4.7,25.9,14.2,35.7a48.784,48.784,0,0,0,69.8,0C815.2,236.9,819.9,225,819.9,211q0-30.747,21.1-51.3,21-20.546,52.1-20.6c20.7,0,38,6.9,52.1,20.6,14,13.7,21.1,30.8,21.1,51.3q-.152,30.6-21.1,51.2-21.006,20.546-52.1,20.6c-20.7,0-38-6.9-52.1-20.6-2.2-2.1-4.1-4.3-6-6.5A72.26,72.26,0,0,0,847,229a50.584,50.584,0,0,0,11.2,17.7,48.791,48.791,0,0,0,69.8,0c9.5-9.8,14.2-21.7,14.2-35.7s-4.7-25.9-14.2-35.7a48.779,48.779,0,0,0-69.8,0C848.7,185.1,844,197,844,211q0,30.747-21.1,51.3-21,20.546-52.1,20.6C750.1,282.9,732.8,276,718.7,262.3Zm-50,20.5L634.3,234.4l-15.7-22h14c13.7,0,23.1-2.1,28-6.4s7.4-11.1,7.4-20.5-2.5-15.9-7.6-19.4-14.1-5.3-27.205-5.3H602.3V282.7H578v-144h53.6c22,0,37.7,3.7,47.2,11.1,9.5,7.5,14.2,19.4,14.2,35.8,0,23.8-10.4,38.7-31.1,44.9l37.7,52.3Zm-109.3,0h-96l.3-.7,7.2-16.4,2.2-4.9h63.6L532,250h-.1l-9.8-22.4-26.2-59.3L469.7,227.6,459.8,250l-7.2,16.4-7.2,16.4H419.5l63.4-144h26l63.4,144ZM35.6,273.1a73.324,73.324,0,0,1-25.9-26,72.223,72.223,0,0,1,0-72.3,73.35,73.35,0,0,1,25.9-26,69.374,69.374,0,0,1,36.2-9.7h67.3V71.8a69.391,69.391,0,0,1,9.7-36.2,73.283,73.283,0,0,1,26-25.9,72.014,72.014,0,0,1,72.2,0,73.277,73.277,0,0,1,26,25.9,69.391,69.391,0,0,1,9.7,36.2v67.3h38.1l-13,21.3H261.4V71.8c0-27.5-23-50.5-50.6-50.5-27.4,0-50.5,23-50.5,50.5v88.6H71.8c-27.5,0-50.5,23.1-50.5,50.5,0,27.6,23,50.6,50.5,50.6v21.3A69.381,69.381,0,0,1,35.6,273.1Zm282.8,9.6v-22h45.8a50.651,50.651,0,0,0,18.9-3.5,45.808,45.808,0,0,0,15.4-10.3,48.134,48.134,0,0,0,9.9-15.6,52.913,52.913,0,0,0,3.6-19.7,54.693,54.693,0,0,0-3.5-19.6,47.544,47.544,0,0,0-25.3-26.5,47.538,47.538,0,0,0-19-3.9h-44l13.3-22.5h34.4a69.332,69.332,0,0,1,27,5.1,61.072,61.072,0,0,1,20.9,14.2,66.865,66.865,0,0,1,13.8,22.1,80.8,80.8,0,0,1,5,28.8,83.081,83.081,0,0,1-5.2,29.6,71.616,71.616,0,0,1-14,23.2,62.874,62.874,0,0,1-21,15.1,64.04,64.04,0,0,1-26.6,5.5Z" fill="url(#linear-gradient)"/>
</svg>
