<svg xmlns="http://www.w3.org/2000/svg" version="1.1" xmlns:xlink="http://www.w3.org/1999/xlink" width="512" height="512" x="0" y="0" viewBox="0 0 512 512" style="enable-background:new 0 0 512 512" xml:space="preserve" class=""><defs><linearGradient id="a" x1="256" x2="256" y1="0" y2="512" gradientUnits="userSpaceOnUse"><stop offset="0" stop-color="#f704fe"></stop><stop offset="1" stop-color="#24bce3"></stop></linearGradient></defs><g><linearGradient id="a" x1="256" x2="256" y1="0" y2="512" gradientUnits="userSpaceOnUse"><stop offset="0" stop-color="#f704fe"></stop><stop offset="1" stop-color="#24bce3"></stop></linearGradient><circle cx="256" cy="256" r="256" fill="url(&quot;#a&quot;)" opacity="1" data-original="url(#a)" class=""></circle><g fill="#FFFFFE"><path d="M303.1 385.8h-94.7c-2.8 0-5.1 2.3-5.1 5.1s2.3 5.1 5.1 5.1h94.7c2.8 0 5.1-2.3 5.1-5.1 0-2.7-2.3-5.1-5.1-5.1zM256 334.9c-2.5 0-5.1-.1-7.6-.3v44.6H263v-44.6c-2.3.2-4.6.3-7 .3zM316.2 236.3v21.1c0 33.2-27 60.1-60.2 60.1s-60.2-27-60.2-60.2v-26.8H184v25.6c0 36 26.6 65.9 61.2 71.1.2 0 .5.1.7.1 3.3.5 6.7.7 10.1.7 3.2 0 6.3-.2 9.5-.6.3-.1.5-.1.9-.1 34.7-5.1 61.6-35.1 61.6-71.2v-25.6h-11.7z" fill="#FFFFFE" opacity="1" data-original="#fffffe" class=""></path><path d="M256 311c29.5 0 53.5-24 53.5-53.5v-2h-107v2c0 29.4 24 53.5 53.5 53.5zM202.5 239.7h107v9.1h-107zM309.5 228c-.1-.2-.1-.4-.1-.7s0-.5.1-.7v-57.2c0-29.6-24-53.5-53.5-53.5s-53.5 24-53.5 53.5v57.2c.1.2.1.4.1.7s0 .5-.1.7v5h107zm-89.3-12.9c-.1.1-.3.3-.5.4l-.6.3c-.2.1-.4.1-.6.2-.3 0-.5.1-.7.1-.9 0-1.8-.3-2.3-1-.1-.1-.3-.3-.4-.5l-.3-.6c-.1-.2-.1-.4-.2-.6s-.1-.4-.1-.7c0-.2 0-.4.1-.7.1-.2.1-.4.2-.6s.2-.4.3-.5c.1-.2.3-.3.4-.5.8-.8 1.9-1.2 3-.9.2.1.4.1.6.2l.6.3c.2.1.3.3.5.4.1.1.3.3.4.5s.2.3.3.5.1.4.2.6.1.4.1.7c-.1.9-.4 1.8-1 2.4zm.8-20.8c-.1.2-.1.4-.2.6s-.2.4-.3.5c-.1.2-.3.3-.4.5-.1.1-.3.3-.5.4l-.6.3c-.2.1-.4.1-.6.2-.3.1-.5.1-.7.1-.9 0-1.8-.3-2.3-1-.1-.1-.3-.3-.4-.5s-.2-.4-.3-.5c-.1-.2-.1-.4-.2-.6s-.1-.4-.1-.7c0-.9.3-1.8 1-2.4.8-.8 1.9-1.2 3-.9.2.1.4.1.6.2l.6.3c.2.1.3.3.5.4.6.6 1 1.5 1 2.4 0 .2 0 .4-.1.7zm0-19.2c-.1.2-.1.4-.2.6l-.3.6c-.1.2-.3.3-.4.5-.1.1-.3.3-.5.4l-.6.3c-.2.1-.4.1-.6.2-.3 0-.5.1-.7.1-.9 0-1.8-.3-2.3-1-.1-.1-.3-.3-.4-.5l-.3-.6c-.1-.2-.1-.4-.2-.6s-.1-.4-.1-.7c0-.9.3-1.8 1-2.4s1.5-1 2.3-1c.9 0 1.7.3 2.4 1 .6.6 1 1.5 1 2.4 0 .2 0 .4-.1.7zm0-19.1c-.1.2-.1.4-.2.6l-.3.6c-.1.2-.3.3-.4.5-.1.1-.3.3-.5.4l-.6.3c-.2.1-.4.1-.6.2-.3.1-.5.1-.7.1-.9 0-1.8-.3-2.3-1-.1-.1-.3-.3-.4-.5l-.3-.6c-.1-.2-.1-.4-.2-.6s-.1-.4-.1-.7c0-.9.3-1.8 1-2.4.6-.6 1.5-1 2.3-1 .9 0 1.7.3 2.4 1 .6.6 1 1.5 1 2.4 0 .2 0 .4-.1.7zm19.2 57.4c-.1.2-.1.4-.2.6l-.3.6c-.1.2-.3.3-.4.5-.7.5-1.6 1-2.4 1-.9 0-1.8-.3-2.4-1-.1-.1-.3-.3-.4-.5l-.3-.6c-.1-.2-.1-.4-.2-.6s-.1-.4-.1-.7c0-.2 0-.4.1-.7.1-.2.1-.4.2-.6l.3-.6c.1-.2.3-.3.4-.5.6-.6 1.5-1 2.4-1s1.8.3 2.4 1c.1.1.3.3.4.5l.3.6c.1.2.1.4.2.6s.1.4.1.7c-.1.2-.1.4-.1.7zm0-19.1c-.1.2-.1.4-.2.6s-.2.4-.3.5c-.1.2-.3.3-.4.5-.7.6-1.6 1-2.4 1-.9 0-1.8-.3-2.4-1-.1-.1-.3-.3-.4-.5s-.2-.4-.3-.5c-.1-.2-.1-.4-.2-.6s-.1-.4-.1-.7 0-.4.1-.7c.1-.2.1-.4.2-.6l.3-.6c.1-.2.3-.3.4-.5.6-.6 1.5-1 2.4-1s1.8.3 2.4 1c.1.1.3.3.4.5l.3.6c.1.2.1.4.2.6s.1.4.1.7c-.1.3-.1.4-.1.7zm0-19.2c-.1.2-.1.4-.2.6l-.3.6c-.1.2-.3.3-.4.5-.8.5-1.6 1-2.5 1-.2 0-.4 0-.7-.1-.2-.1-.4-.1-.6-.2s-.4-.2-.5-.3c-.2-.1-.3-.3-.5-.4-.1-.1-.3-.3-.4-.5l-.3-.6c-.1-.2-.1-.4-.2-.6s-.1-.4-.1-.7c0-.2 0-.4.1-.7.1-.2.1-.4.2-.6l.3-.6c.1-.2.3-.3.4-.5.6-.6 1.5-1 2.4-1s1.8.3 2.4 1c.1.1.3.3.4.5l.3.6c.1.2.1.4.2.6s.1.4.1.7c0 .2 0 .4-.1.7zm0-19.1c-.1.2-.1.4-.2.6l-.3.6c-.1.2-.3.3-.4.5-.8.6-1.6 1-2.5 1-.2 0-.4 0-.7-.1-.2-.1-.4-.1-.6-.2s-.4-.2-.5-.3-.3-.3-.5-.4c-.1-.1-.3-.3-.4-.5l-.3-.6c-.1-.2-.1-.4-.2-.6s-.1-.4-.1-.7c0-.9.3-1.7 1-2.4.6-.6 1.5-1 2.4-1s1.8.3 2.4 1c.6.6 1 1.5 1 2.4 0 .2 0 .4-.1.7zm0-19.1c-.1.2-.1.4-.2.6s-.2.4-.3.5c-.1.2-.3.3-.4.5-.8.5-1.6 1-2.5 1-.2 0-.4 0-.7-.1-.2-.1-.4-.1-.6-.2s-.4-.2-.5-.3c-.2-.1-.3-.3-.5-.4-.1-.1-.3-.3-.4-.5s-.2-.4-.3-.5c-.1-.2-.1-.4-.2-.6s-.1-.4-.1-.7c0-.2 0-.4.1-.7.1-.2.1-.4.2-.6l.3-.6c.1-.2.3-.3.4-.5.6-.6 1.5-1 2.4-1s1.8.3 2.4 1c.1.1.3.3.4.5l.3.6c.1.2.1.4.2.6s.1.4.1.7 0 .5-.1.7zm19 76.5c-.1.2-.1.4-.2.6l-.3.6c-.1.2-.3.3-.4.5-.6.5-1.4 1-2.3 1s-1.7-.3-2.4-1c-.1-.1-.3-.3-.4-.5l-.3-.6c-.1-.2-.1-.4-.2-.6s-.1-.4-.1-.7c0-.2 0-.4.1-.7.1-.2.1-.4.2-.6l.3-.6c.1-.2.3-.3.4-.5.1-.1.3-.3.5-.4l.6-.3c.2-.1.4-.1.6-.2 1.1-.2 2.3.1 3 .9.1.1.3.3.4.5l.3.6c.1.2.1.4.2.6s.1.4.1.7c0 .2 0 .4-.1.7zm0-19.1c-.1.2-.1.4-.2.6s-.2.4-.3.5c-.1.2-.3.3-.4.5-.6.6-1.4 1-2.3 1s-1.7-.3-2.4-1c-.1-.1-.3-.3-.4-.5s-.2-.4-.3-.5c-.1-.2-.1-.4-.2-.6s-.1-.4-.1-.7 0-.4.1-.7c.1-.2.1-.4.2-.6l.3-.6c.1-.2.3-.3.4-.5s.3-.3.5-.4l.6-.3c.2-.1.4-.1.6-.2 1.1-.2 2.3.1 3 .9.1.1.3.3.4.5l.3.6c.1.2.1.4.2.6s.1.4.1.7 0 .4-.1.7zm-.9-17.5c-.1.1-.3.3-.5.4l-.6.3c-.2.1-.4.1-.6.2-.2 0-.4.1-.6.1s-.4 0-.7-.1c-.2-.1-.4-.1-.6-.2l-.6-.3c-.2-.1-.3-.3-.5-.4-.6-.6-1-1.5-1-2.4 0-.2 0-.4.1-.7.1-.2.1-.4.2-.6l.3-.6c.1-.2.3-.3.4-.5s.3-.3.5-.4l.6-.3c.2-.1.4-.1.6-.2.4-.1.9-.1 1.3 0 .2.1.4.1.6.2l.6.3c.2.1.3.3.5.4.1.1.3.3.4.5l.3.6c.1.2.1.4.2.6s.1.4.1.7c0 .9-.4 1.7-1 2.4zm.9-20.8c-.1.2-.1.4-.2.6l-.3.6c-.1.2-.3.3-.4.5-.6.6-1.4 1-2.3 1s-1.7-.3-2.4-1c-.1-.1-.3-.3-.4-.5l-.3-.6c-.1-.2-.1-.4-.2-.6s-.1-.4-.1-.7c0-.2 0-.4.1-.7.1-.2.1-.4.2-.6l.3-.6c.1-.2.3-.3.4-.5.1-.1.3-.3.5-.4l.6-.3c.2-.1.4-.1.6-.2 1.1-.2 2.3.1 3 .9.6.6 1 1.5 1 2.4 0 .2 0 .4-.1.7zm-.9-17.4c-.6.5-1.4.9-2.3.9s-1.7-.3-2.4-1c-.1-.1-.3-.3-.4-.5s-.2-.4-.3-.5c-.1-.2-.1-.4-.2-.6s-.1-.4-.1-.7c0-.2 0-.4.1-.7.1-.2.1-.4.2-.6l.3-.6c.1-.2.3-.3.4-.5.1-.1.3-.3.5-.4l.6-.3c.2-.1.4-.1.6-.2 1.1-.2 2.3.1 3 .9.1.1.3.3.4.5l.3.6c.1.2.1.4.2.6s.1.4.1.7c0 .9-.4 1.8-1 2.4zm19.1 76.5c-.1.1-.3.3-.5.4l-.6.3c-.2.1-.4.1-.6.2-.1 0-.3.1-.6.1-.9 0-1.7-.3-2.4-1-.6-.6-1-1.5-1-2.4s.3-1.7 1-2.4c.1-.1.3-.3.5-.4l.6-.3c.2-.1.4-.1.6-.2.4-.1.9-.1 1.3 0 .2.1.4.1.6.2l.6.3c.2.1.3.3.5.4.6.6 1 1.5 1 2.4s-.3 1.7-1 2.4zm.9-20.9c-.1.2-.1.4-.2.6s-.2.4-.3.5c-.1.2-.3.3-.4.5-.1.1-.3.3-.5.4l-.6.3c-.2.1-.4.1-.6.2-.1.1-.3.1-.6.1-.9 0-1.7-.3-2.4-1-.6-.6-1-1.5-1-2.4 0-.2 0-.4.1-.7.1-.2.1-.4.2-.6s.2-.4.3-.5c.1-.2.3-.3.4-.5.8-.8 1.9-1.2 3-.9.2.1.4.1.6.2l.6.3c.2.1.3.3.5.4.1.1.3.3.4.5s.2.3.3.5.1.4.2.6.1.4.1.7c0 .4 0 .5-.1.8zm-.9-17.4c-.1.1-.3.3-.5.4l-.6.3c-.2.1-.4.1-.6.2-.1 0-.3.1-.6.1-.9 0-1.7-.3-2.4-1-.6-.6-1-1.5-1-2.4 0-.2 0-.4.1-.7.1-.2.1-.4.2-.6s.2-.4.3-.5c.1-.2.3-.3.4-.5.8-.8 1.9-1.2 3-.9.2.1.4.1.6.2l.6.3c.2.1.3.3.5.4s.3.3.4.5.2.3.3.5.1.4.2.6.1.4.1.7c0 .9-.3 1.7-1 2.4zm0-19.1c-.1.1-.3.3-.5.4l-.6.3c-.2.1-.4.1-.6.2-.1.1-.3.1-.6.1-.9 0-1.7-.3-2.4-1-.6-.6-1-1.5-1-2.4s.3-1.7 1-2.4c.1-.1.3-.3.5-.4l.6-.3c.2-.1.4-.1.6-.2.4-.1.9-.1 1.3 0 .2.1.4.1.6.2l.6.3c.2.1.3.3.5.4.6.6 1 1.5 1 2.4s-.3 1.7-1 2.4zm0-19.1c-.1.1-.3.3-.5.4l-.6.3c-.2.1-.4.1-.6.2-.1 0-.3.1-.6.1-.2 0-.4 0-.7-.1-.2-.1-.4-.1-.6-.2l-.6-.3c-.2-.1-.3-.3-.5-.4-.6-.6-1-1.5-1-2.4 0-.2 0-.4.1-.7.1-.2.1-.4.2-.6l.3-.6c.1-.2.3-.3.4-.5.8-.8 1.9-1.2 3-.9.2.1.4.1.6.2l.6.3c.2.1.3.3.5.4.1.1.3.3.4.5l.3.6c.1.2.1.4.2.6s.1.4.1.7c0 .9-.3 1.7-1 2.4zm19.2 76.5c-.1.1-.3.3-.5.4s-.3.2-.5.3-.4.1-.6.2c-.2 0-.4.1-.6.1s-.4 0-.7-.1c-.2-.1-.4-.1-.6-.2l-.6-.3c-.2-.1-.3-.3-.5-.4-.6-.6-1-1.5-1-2.4s.3-1.7 1-2.4c.1-.1.3-.3.5-.4l.6-.3c.2-.1.4-.1.6-.2.4-.1.9-.1 1.3 0 .2.1.4.1.6.2s.4.2.5.3c.2.1.3.3.5.4.6.6 1 1.5 1 2.4s-.4 1.7-1 2.4zm.8-20.8c-.1.2-.1.4-.2.6s-.2.4-.3.5c-.1.2-.3.3-.4.5-.1.1-.3.3-.5.4s-.3.2-.5.3-.4.1-.6.2-.4.1-.6.1-.4 0-.7-.1c-.2-.1-.4-.1-.6-.2l-.6-.3c-.2-.1-.3-.3-.5-.4-.1-.1-.3-.3-.4-.5s-.2-.4-.3-.5c-.1-.2-.1-.4-.2-.6s-.1-.4-.1-.7c0-.9.3-1.7 1-2.4.1-.1.3-.3.5-.4l.6-.3c.2-.1.4-.1.6-.2.4-.1.9-.1 1.3 0 .2.1.4.1.6.2s.4.2.5.3c.2.1.3.3.5.4.6.6 1 1.5 1 2.4 0 .2 0 .4-.1.7zm-.8-17.5c-.1.1-.3.3-.5.4s-.3.2-.5.3-.4.1-.6.2c-.2 0-.4.1-.6.1s-.4 0-.7-.1c-.2-.1-.4-.1-.6-.2l-.6-.3c-.2-.1-.3-.3-.5-.4-.6-.6-1-1.5-1-2.4s.3-1.7 1-2.3c.1-.1.3-.3.5-.4l.6-.3c.2-.1.4-.1.6-.2.4-.1.9-.1 1.3 0 .2.1.4.1.6.2s.4.2.5.3c.2.1.3.3.5.4.6.6 1 1.5 1 2.3-.1.9-.4 1.7-1 2.4zm0-19.1c-.1.1-.3.3-.5.4s-.3.2-.5.3-.4.1-.6.2-.4.1-.6.1-.4 0-.7-.1c-.2-.1-.4-.1-.6-.2l-.6-.3c-.2-.1-.3-.3-.5-.4-.6-.6-1-1.5-1-2.4s.3-1.8 1-2.4c.1-.1.3-.3.5-.4l.6-.3c.2-.1.4-.1.6-.2.4-.1.9-.1 1.3 0 .2.1.4.1.6.2s.4.2.5.3c.2.1.3.3.5.4.6.6 1 1.5 1 2.4s-.4 1.7-1 2.4zM374.6 152.4c-1.8 0-3.3 1.5-3.3 3.3v28.4c0 1.8 1.5 3.3 3.3 3.3s3.3-1.5 3.3-3.3v-28.4c0-1.8-1.5-3.3-3.3-3.3zM354.9 139.9c-1.8 0-3.3 1.5-3.3 3.3v53.4c0 1.8 1.5 3.3 3.3 3.3s3.3-1.5 3.3-3.3v-53.4c.1-1.8-1.4-3.3-3.3-3.3zM335.4 152.4c-1.8 0-3.3 1.5-3.3 3.3v28.4c0 1.8 1.5 3.3 3.3 3.3s3.3-1.5 3.3-3.3v-28.4c0-1.8-1.5-3.3-3.3-3.3zM176.6 152.4c-1.8 0-3.3 1.5-3.3 3.3v28.4c0 1.8 1.5 3.3 3.3 3.3s3.3-1.5 3.3-3.3v-28.4c.1-1.8-1.5-3.3-3.3-3.3zM157.1 139.9c-1.8 0-3.3 1.5-3.3 3.3v53.4c0 1.8 1.5 3.3 3.3 3.3s3.3-1.5 3.3-3.3v-53.4c0-1.8-1.5-3.3-3.3-3.3zM137.4 152.4c-1.8 0-3.3 1.5-3.3 3.3v28.4c0 1.8 1.5 3.3 3.3 3.3s3.3-1.5 3.3-3.3v-28.4c.1-1.8-1.4-3.3-3.3-3.3z" fill="#FFFFFE" opacity="1" data-original="#fffffe" class=""></path></g></g></svg>