<svg width="24" height="24" viewBox="0 0 24 24" fill="none" xmlns="http://www.w3.org/2000/svg">
<path d="M1.8 6.08163C1.8 5.24934 2.35131 4.8 2.77465 4.8H20.2254C20.6487 4.8 21.2 5.24934 21.2 6.08163V10.0697C21.199 10.0723 21.1955 10.0801 21.1862 10.0925C21.1636 10.1224 21.1217 10.1587 21.0682 10.1853C20.2299 10.6015 19.7211 11.5197 19.7211 12.5C19.7211 13.4803 20.2299 14.3985 21.0682 14.8147C21.1217 14.8413 21.1636 14.8776 21.1862 14.9075C21.1955 14.9199 21.199 14.9277 21.2 14.9303V18.9184C21.2 19.7507 20.6487 20.2 20.2254 20.2H2.77465C2.35131 20.2 1.8 19.7507 1.8 18.9184V14.9303C1.80099 14.9277 1.80448 14.9199 1.81381 14.9075C1.8364 14.8776 1.87834 14.8413 1.93178 14.8147C2.77012 14.3985 3.27887 13.4803 3.27887 12.5C3.27887 11.5197 2.77012 10.6015 1.93178 10.1853C1.87834 10.1587 1.8364 10.1224 1.81381 10.0925C1.80448 10.0801 1.80099 10.0723 1.8 10.0697V6.08163Z" stroke="#58585B" stroke-width="1.6"/>
<path d="M9 13L10.5 14.5L14 10" stroke="#98CC54" stroke-width="1.5" stroke-linecap="round" stroke-linejoin="round"/>
</svg>
