<svg width="24" height="24" viewBox="0 0 24 24" fill="none" xmlns="http://www.w3.org/2000/svg">
<path d="M9.5 12.5L10.8636 14L14.5 10" stroke="#98CC54" stroke-width="1.5" stroke-linecap="round" stroke-linejoin="round"/>
<path d="M3.59636 12.0177L3.14883 7.26468C3.06167 6.33899 3.6233 5.47353 4.48901 5.13438C5.68207 4.66698 7.42326 3.92565 9.07153 3.00475C10.8417 2.01573 13.1583 2.01573 14.9285 3.00475C16.5767 3.92565 18.3179 4.66698 19.511 5.13438C20.3767 5.47353 20.9383 6.33899 20.8512 7.26468L20.4036 12.0177C20.0688 15.574 18.167 18.7963 15.2154 20.8083L14.8162 21.0803C13.1173 22.2384 10.8827 22.2384 9.1838 21.0803L8.78464 20.8083C5.83305 18.7963 3.93122 15.574 3.59636 12.0177Z" stroke="#58585B" stroke-width="1.5" stroke-linecap="round" stroke-linejoin="round"/>
</svg>
